<svg width="27" height="38" viewBox="0 0 27 38" fill="none" xmlns="http://www.w3.org/2000/svg">
<g id="Group 87">
<path id="Union" fill-rule="evenodd" clip-rule="evenodd" d="M20.2226 3.04873C20.1058 2.29562 19.9189 1.09075 19.8964 0.932129C19.6253 0.960163 18.9933 1.02218 18.9933 1.02218C13.1835 1.80629 5.88691 5.78206 2.68251 12.8875C-1.53623 22.2483 1.28929 32.3534 9.11424 35.8798C14.7967 38.4436 21.3559 36.7887 26.2712 31.5718C26.2264 31.5159 26.1644 31.4378 26.1009 31.3577C26.0478 31.2908 25.9936 31.2225 25.9476 31.1649C21.5487 35.8713 15.6955 37.38 10.6357 35.0965C5.87587 32.9506 3.20836 28.0413 3.20836 22.4565C3.20836 19.8722 3.77755 17.1436 4.98131 14.4744C7.91046 7.97552 14.417 4.37269 19.2201 3.77887C19.2201 3.77887 20.0978 3.66419 20.3136 3.63616C20.3035 3.57031 20.2684 3.34432 20.2226 3.04873ZM11.2039 34.4311C6.84243 32.4594 4.40006 27.9476 4.40006 22.796C4.40006 20.3818 4.93356 17.8341 6.06343 15.339C8.89912 9.05167 15.0717 6.04012 19.5029 5.36815C19.5029 5.36815 20.3277 5.23478 20.5308 5.19994C20.6581 5.98065 20.9123 7.55822 20.9852 8.0212C20.7721 8.05263 19.8401 8.19536 19.8401 8.19536C15.8023 8.84269 10.6865 11.8041 8.36053 16.9658C7.38357 19.1253 6.8934 21.3894 6.8934 23.5675C6.8934 25.1603 7.15846 26.7159 7.6979 28.1345C8.65277 30.6644 10.4359 32.6208 12.7126 33.6471C16.8158 35.4948 21.5605 34.1508 25.1335 30.1445C25.2288 30.2593 25.3662 30.4333 25.4543 30.5448L25.4546 30.5451L25.4742 30.57C21.3845 35.0784 15.9323 36.5592 11.2039 34.4311ZM13.2862 32.975C9.93396 31.4662 8.07267 27.9509 8.07267 23.9029C8.07267 21.9313 8.51441 19.8406 9.43785 17.7898C11.7044 12.7623 16.556 10.3208 20.0211 9.75414C20.0211 9.75414 21.0076 9.58593 21.2225 9.54516C21.2424 9.68398 21.3795 10.5401 21.4962 11.2691C21.578 11.7804 21.6498 12.2291 21.6642 12.324C21.44 12.3554 20.3516 12.5134 20.3516 12.5134C17.5007 12.9832 13.5903 15.3508 11.7383 19.4539C10.9389 21.227 10.5558 23.0381 10.5558 24.7202C10.5558 28.0742 12.0612 30.965 14.7856 32.19C17.9296 33.6087 21.5614 32.4202 24.3037 29.1003C24.4141 29.2404 24.5823 29.452 24.668 29.5514C21.4059 33.3607 17.0538 34.6731 13.2862 32.975Z" fill="#93186C"/>
</g>
</svg>
