<svg width="143" height="27" viewBox="0 0 143 27" fill="none" xmlns="http://www.w3.org/2000/svg">
<g id="Group">
<path id="Vector" d="M114.319 15.5527C114.319 13.2524 114.78 11.6422 115.776 10.6454C116.275 10.147 117.195 9.61023 118.192 9.61023C119.572 9.61023 120.722 10.3003 121.297 10.9904L121.412 11.1438L121.642 10.2236C121.719 9.8786 122.026 9.61023 122.371 9.61023H123.712C124.019 9.61023 124.288 9.8786 124.288 10.1853C124.288 10.1853 124.288 18.7732 124.288 18.8498C124.288 19.6933 124.211 20.6518 124.556 21.6102H122.447C122.102 21.6102 121.911 21.4185 121.872 20.9968L121.719 20.1917L121.604 20.3834C120.99 21.2652 119.764 21.8019 118.307 21.8019C116.581 21.8019 114.319 21.1502 114.319 15.5527ZM117.463 15.7061C117.463 18.1214 118 19.1182 119.38 19.1182C120.53 19.1182 121.067 18.0064 121.067 15.7061C121.067 13.3291 120.53 12.1406 119.38 12.1406C117.808 12.1406 117.463 13.5975 117.463 15.7061Z" fill="#93226D"/>
<path id="Vector_2" d="M16.9009 15.5911C16.9009 11.7572 18.7795 9.45688 21.9233 9.45688C25.0287 9.45688 26.9073 11.7572 26.9073 15.5911C26.9073 19.5399 25.1054 21.8019 21.9233 21.8019C18.6645 21.8019 16.9009 19.5783 16.9009 15.5911ZM19.9297 15.5527C19.9297 17.9681 20.5815 19.1566 21.885 19.1566C23.2268 19.1566 23.8402 17.9681 23.8402 15.5527C23.8402 13.1374 23.1885 11.9872 21.885 11.9872C20.5815 11.9872 19.9297 13.1757 19.9297 15.5527Z" fill="#93226D"/>
<path id="Vector_3" d="M37.6038 11.0288C38.3706 10.1086 39.6741 9.45688 40.7476 9.45688C42.5879 9.45688 43.6613 10.6837 43.6613 12.754V21.6486H41.1693C40.8626 21.6486 40.5942 21.3802 40.5942 21.0735V13.1374C40.5942 12.3706 40.0958 11.9872 39.5974 11.9872C38.4473 11.9872 37.7188 12.984 37.7188 14.5559V21.6102H35.2268C34.9201 21.6102 34.6518 21.3419 34.6518 21.0352V13.1374C34.6518 12.3706 34.1533 11.9872 33.6549 11.9872C32.5048 11.9872 31.7764 12.984 31.7764 14.5559V21.6102H29.2843C28.9776 21.6102 28.7093 21.3419 28.7093 21.0352V9.64857H30.7412C31.1629 9.64857 31.3163 9.91694 31.3546 10.1853L31.5847 11.1054L31.6997 10.9521C32.5048 10.0703 33.7316 9.45688 34.7668 9.45688C36.0319 9.45688 36.9904 9.99362 37.4121 10.9904L37.4505 11.1438L37.6038 11.0288Z" fill="#93226D"/>
<path id="Vector_4" d="M49.0288 11.1438C49.4121 10.3003 50.5623 9.45688 51.7891 9.45688C53.5144 9.45688 55.8147 10.1086 55.8147 15.7828C55.8147 18.1214 55.3546 19.7316 54.3195 20.7284C53.8211 21.2268 52.901 21.7636 51.8658 21.7636C50.7923 21.7636 49.9105 21.3419 49.2205 20.5368L49.0671 20.3451V26.5943H46.5751C46.2684 26.5943 46 26.3259 46 26.0192V9.64857H47.8786C48.2236 9.64857 48.5304 9.91694 48.607 10.262L48.7987 11.1438L48.8754 11.4122L49.0288 11.1438ZM48.9904 15.6294C48.9904 18.0447 49.5655 19.1949 50.7157 19.1949C52.2875 19.1949 52.6326 17.738 52.6326 15.6294C52.6326 13.1757 52.0575 12.1789 50.7157 12.1789C49.5272 12.1789 48.9904 13.2907 48.9904 15.6294Z" fill="#93226D"/>
<path id="Vector_5" d="M66.2811 9.64856C66.5878 9.64856 66.8562 9.91693 66.8562 10.2236V21.6486H64.8243C64.4025 21.6486 64.2875 21.3802 64.2108 21.1118L63.9808 20.1917L63.8658 20.3067C62.9457 21.2652 61.7955 21.8019 60.492 21.8019C58.6517 21.8019 57.3866 20.5751 57.3866 18.7732V9.64856H59.8786C60.1853 9.64856 60.4537 9.91693 60.4537 10.2236V18.1214C60.4537 18.8115 60.9521 19.2716 61.7188 19.2716C62.869 19.2716 63.7891 18.1214 63.7891 16.7029V9.64856H66.2811Z" fill="#93226D"/>
<path id="Vector_6" d="M97.4505 19.3099C98.2172 19.3099 98.639 18.9649 98.6773 18.2748C98.7156 17.3546 97.8722 16.9329 96.9137 16.4345L96.3386 16.1278C95.1501 15.476 93.9233 14.5943 93.9233 12.9074C93.9233 10.7604 95.4568 9.34186 97.7955 9.34186C99.2907 9.34186 100.288 9.76358 101.361 10.2236H101.399C101.361 10.377 100.824 11.7572 100.824 11.7572C100.748 11.9489 100.556 12.3323 100.173 12.2173L99.7891 12.0639C99.3291 11.8722 98.754 11.6422 98.1022 11.6422C97.3354 11.6422 96.9904 12.1789 96.9904 12.7157C96.9904 13.4441 97.6805 13.7891 98.5623 14.2109L99.099 14.4792C100.441 15.2077 101.783 16.1661 101.783 18.0064C101.783 19.8083 100.709 21.7252 97.6421 21.7252C96.3003 21.7252 94.4217 21.1118 93.4249 20.7668C93.4632 20.6134 94 18.8882 94 18.8882C94.0767 18.6965 94.1917 18.5431 94.3067 18.4665C94.4217 18.4281 94.5367 18.4281 94.6901 18.4665L95.2268 18.6582C95.9553 19.0032 96.722 19.3099 97.4505 19.3099Z" fill="#93226D"/>
<path id="Vector_7" d="M105.847 4.20447C106.153 4.20447 106.422 4.47284 106.422 4.77955V10.9521L106.575 10.7604C106.958 10.377 107.994 9.45686 109.565 9.45686C111.367 9.45686 112.556 10.6454 112.556 12.4856V21.6102H110.064C109.757 21.6102 109.489 21.3418 109.489 21.0351V13.1374C109.489 12.4089 109.105 11.9872 108.377 11.9872C107.227 11.9872 106.422 13.0607 106.422 14.5559V21.6102H103.93C103.623 21.6102 103.355 21.3418 103.355 21.0351V4.20447H105.847Z" fill="#93226D"/>
<path id="Vector_8" d="M129.463 11.0288C130.115 10.0703 130.843 9.45688 132.224 9.45688C132.684 9.45688 132.837 9.76359 132.837 10.0703V12.2556C131.764 12.2173 130.958 12.409 130.422 12.9457C129.77 13.5208 129.463 14.5176 129.463 16.0128V21.6102H127.01C126.665 21.6102 126.435 21.3419 126.435 21.0352C126.435 21.0352 126.435 10.6837 126.435 9.64857H128.39C128.735 9.64857 129.042 9.91694 129.118 10.262L129.387 11.1821L129.463 11.0288Z" fill="#93226D"/>
<path id="Vector_9" d="M89.8211 11.0288C90.4728 10.0703 91.2013 9.45688 92.5815 9.45688C93.0415 9.45688 93.1949 9.76359 93.1949 10.0703V12.2556C92.1214 12.2173 91.3163 12.409 90.7795 12.9457C90.1278 13.5208 89.8594 14.5176 89.8594 16.0128V21.6102H87.3674C87.0607 21.6102 86.7923 21.3419 86.7923 21.0352C86.7923 21.0352 86.7923 10.6837 86.7923 9.64857H88.7476C89.0926 9.64857 89.3994 9.91694 89.476 10.262L89.7061 11.1821L89.8211 11.0288Z" fill="#93226D"/>
<path id="Vector_10" d="M71.3418 5.62302C71.6102 5.58468 71.8019 5.66136 71.9169 5.73804C72.0319 5.85305 72.0703 6.00641 72.0703 6.31312V9.61024H74.1022C74.4473 9.61024 74.6773 9.87861 74.6773 10.1853V11.9872H72.0703V17.8914C72.0703 18.5815 72.377 18.9649 72.9137 18.9649C73.2204 18.9649 73.4505 18.9265 73.7188 18.8882C74.1022 18.8115 74.2172 18.9649 74.2939 19.2332C74.2939 19.2332 74.5623 20.8818 74.639 21.2652C73.7955 21.5719 72.722 21.7636 71.8019 21.7636C69.9233 21.7636 69.0032 20.8051 69.0032 18.7732V5.62302H71.3418Z" fill="#93226D"/>
<path id="Vector_11" d="M136.211 14.3642V14.4409H139.47V14.3642C139.47 12.6773 138.933 11.8339 137.898 11.8339C137.131 11.8339 136.211 12.2556 136.211 14.3642ZM132.99 15.5911C132.99 11.8722 134.869 9.45688 137.783 9.45688C140.888 9.45688 142.422 11.5655 142.422 15.7828C142.422 16.1278 142.153 16.3578 141.847 16.3578H136.173V16.4345C136.173 17.8914 136.288 19.4249 137.783 19.4249C138.703 19.4249 139.24 18.8882 139.355 17.8147H142.268C141.923 20.7284 139.93 21.8019 138.128 21.8019C134.754 21.8019 132.99 19.6933 132.99 15.5911Z" fill="#93226D"/>
<path id="Vector_12" d="M78.7029 14.3642V14.4409H81.9617V14.3642C81.9617 12.6773 81.4249 11.8339 80.3514 11.8339C79.623 11.8339 78.7029 12.2556 78.7029 14.3642ZM75.4824 15.5911C75.4824 11.8722 77.361 9.45688 80.2748 9.45688C83.3802 9.45688 84.9521 11.5655 84.9521 15.7828C84.9521 16.1278 84.6837 16.3578 84.377 16.3578H78.7029V16.4345C78.7029 17.8914 78.8179 19.4249 80.3131 19.4249C81.2332 19.4249 81.7316 18.8882 81.9233 17.8147H84.8371C84.492 20.7284 82.4984 21.8019 80.6965 21.8019C77.246 21.8019 75.4824 19.6933 75.4824 15.5911Z" fill="#93226D"/>
<path id="Vector_13" d="M9.3099 22.7987C6.97124 21.7636 5.66772 19.3099 5.66772 16.4729C5.66772 15.0927 5.97443 13.6358 6.62619 12.2173C8.19808 8.72844 11.5719 7.0032 13.9872 6.61982C13.9872 6.61982 14.6773 6.5048 14.8307 6.46646C14.869 6.61982 15.099 8.23004 15.1374 8.38339C14.984 8.38339 14.2172 8.49841 14.2172 8.49841C12.2236 8.80512 9.50159 10.4537 8.23641 13.3291C7.66133 14.5559 7.39296 15.8211 7.39296 17.0096C7.39296 19.3483 8.42811 21.3419 10.345 22.2237C12.5303 23.2205 15.0607 22.377 16.9776 20.0767C17.0543 20.1534 17.1693 20.3067 17.246 20.3834C14.9457 23.0671 11.9553 23.9872 9.3099 22.7987Z" fill="#93226D"/>
<path id="Vector_14" d="M7.85304 23.8339C4.82429 22.4537 3.13739 19.3099 3.13739 15.7061C3.13739 14.0192 3.52078 12.2556 4.28755 10.5304C6.24282 6.15975 10.5751 4.05112 13.6422 3.59106C13.6422 3.59106 14.2173 3.51438 14.3706 3.47604C14.4473 4.01278 14.639 5.12461 14.6773 5.43132C14.524 5.46965 13.8722 5.54633 13.8722 5.54633C11.0735 6.0064 7.508 8.07668 5.89777 11.6422C5.20768 13.1374 4.86263 14.7093 4.86263 16.2428C4.86263 17.3546 5.05432 18.4281 5.43771 19.4249C6.12781 21.1885 7.35464 22.5304 8.92653 23.2588C11.7636 24.524 15.099 23.6038 17.5911 20.8051C17.6677 20.8818 17.7828 21.0351 17.8211 21.1118C14.9457 24.2556 11.1502 25.2907 7.85304 23.8339Z" fill="#93226D"/>
<path id="Vector_15" d="M13.9105 0.485626C13.9489 0.638981 14.1789 2.21087 14.1789 2.36422C14.0256 2.40256 13.4121 2.47924 13.4121 2.47924C10.0767 2.90096 5.55271 5.39297 3.48242 9.91694C2.63897 11.7572 2.25559 13.6741 2.25559 15.476C2.25559 19.3482 4.09584 22.7987 7.43131 24.2939C10.9585 25.8658 15.0224 24.8307 18.0895 21.5335C18.1661 21.6102 18.2811 21.7252 18.3195 21.8019C14.9073 25.4058 10.345 26.5943 6.39616 24.7923C0.952072 22.377 -1.0032 15.361 1.94888 8.84345C4.17252 3.89777 9.27156 1.13738 13.2971 0.562303C13.2971 0.562303 13.7188 0.523965 13.9105 0.485626Z" fill="#93226D"/>
</g>
</svg>
