<svg width="143" height="27" viewBox="0 0 143 27" fill="none" xmlns="http://www.w3.org/2000/svg">
<g id="Group">
<path id="Vector" d="M114.319 15.5527C114.319 13.2524 114.779 11.6422 115.776 10.6454C116.275 10.147 117.195 9.61023 118.192 9.61023C119.572 9.61023 120.722 10.3003 121.297 10.9904L121.412 11.1438L121.642 10.2236C121.719 9.8786 122.025 9.61023 122.37 9.61023H123.712C124.019 9.61023 124.287 9.8786 124.287 10.1853C124.287 10.1853 124.287 18.7732 124.287 18.8498C124.287 19.6933 124.211 20.6518 124.556 21.6102H122.447C122.102 21.6102 121.91 21.4185 121.872 20.9968L121.719 20.1917L121.604 20.3834C120.99 21.2652 119.763 21.8019 118.307 21.8019C116.581 21.8019 114.319 21.1502 114.319 15.5527ZM117.463 15.7061C117.463 18.1214 118 19.1182 119.38 19.1182C120.53 19.1182 121.067 18.0064 121.067 15.7061C121.067 13.3291 120.53 12.1406 119.38 12.1406C117.808 12.1406 117.463 13.5975 117.463 15.7061Z" fill="#F8F1F6"/>
<path id="Vector_2" d="M16.9009 15.5911C16.9009 11.7572 18.7795 9.45688 21.9232 9.45688C25.0287 9.45688 26.9073 11.7572 26.9073 15.5911C26.9073 19.5399 25.1054 21.8019 21.9232 21.8019C18.6645 21.8019 16.9009 19.5783 16.9009 15.5911ZM19.9296 15.5527C19.9296 17.9681 20.5814 19.1566 21.8849 19.1566C23.2268 19.1566 23.8402 17.9681 23.8402 15.5527C23.8402 13.1374 23.1884 11.9872 21.8849 11.9872C20.5814 11.9872 19.9296 13.1757 19.9296 15.5527Z" fill="#F8F1F6"/>
<path id="Vector_3" d="M37.604 11.0288C38.3708 10.1086 39.6743 9.45688 40.7478 9.45688C42.5881 9.45688 43.6615 10.6837 43.6615 12.754V21.6486H41.1695C40.8628 21.6486 40.5945 21.3802 40.5945 21.0735V13.1374C40.5945 12.3706 40.0961 11.9872 39.5977 11.9872C38.4475 11.9872 37.7191 12.984 37.7191 14.5559V21.6102H35.227C34.9203 21.6102 34.652 21.3419 34.652 21.0352V13.1374C34.652 12.3706 34.1536 11.9872 33.6552 11.9872C32.505 11.9872 31.7766 12.984 31.7766 14.5559V21.6102H29.2846C28.9778 21.6102 28.7095 21.3419 28.7095 21.0352V9.64857H30.7414C31.1631 9.64857 31.3165 9.91694 31.3548 10.1853L31.5849 11.1054L31.6999 10.9521C32.505 10.0703 33.7318 9.45688 34.767 9.45688C36.0322 9.45688 36.9906 9.99362 37.4123 10.9904L37.4507 11.1438L37.604 11.0288Z" fill="#F8F1F6"/>
<path id="Vector_4" d="M49.0288 11.1438C49.4121 10.3003 50.5623 9.45688 51.7891 9.45688C53.5144 9.45688 55.8147 10.1086 55.8147 15.7828C55.8147 18.1214 55.3546 19.7316 54.3195 20.7284C53.8211 21.2268 52.901 21.7636 51.8658 21.7636C50.7923 21.7636 49.9105 21.3419 49.2205 20.5368L49.0671 20.3451V26.5943H46.5751C46.2684 26.5943 46 26.3259 46 26.0192V9.64857H47.8786C48.2236 9.64857 48.5304 9.91694 48.607 10.262L48.7987 11.1438L48.8754 11.4122L49.0288 11.1438ZM48.9904 15.6294C48.9904 18.0447 49.5655 19.1949 50.7157 19.1949C52.2875 19.1949 52.6326 17.738 52.6326 15.6294C52.6326 13.1757 52.0575 12.1789 50.7157 12.1789C49.5272 12.1789 48.9904 13.2907 48.9904 15.6294Z" fill="#F8F1F6"/>
<path id="Vector_5" d="M66.2813 9.64856C66.588 9.64856 66.8564 9.91693 66.8564 10.2236V21.6486H64.8244C64.4027 21.6486 64.2877 21.3802 64.211 21.1118L63.981 20.1917L63.866 20.3067C62.9458 21.2652 61.7957 21.8019 60.4922 21.8019C58.6519 21.8019 57.3867 20.5751 57.3867 18.7732V9.64856H59.8787C60.1854 9.64856 60.4538 9.91693 60.4538 10.2236V18.1214C60.4538 18.8115 60.9522 19.2716 61.719 19.2716C62.8691 19.2716 63.7893 18.1214 63.7893 16.7029V9.64856H66.2813Z" fill="#F8F1F6"/>
<path id="Vector_6" d="M97.4504 19.3099C98.2171 19.3099 98.6389 18.9649 98.6772 18.2748C98.7155 17.3546 97.8721 16.9329 96.9136 16.4345L96.3385 16.1278C95.15 15.476 93.9232 14.5943 93.9232 12.9074C93.9232 10.7604 95.4568 9.34186 97.7954 9.34186C99.2906 9.34186 100.287 9.76358 101.361 10.2236H101.399C101.361 10.377 100.824 11.7572 100.824 11.7572C100.747 11.9489 100.556 12.3323 100.172 12.2173L99.789 12.0639C99.329 11.8722 98.7539 11.6422 98.1021 11.6422C97.3354 11.6422 96.9903 12.1789 96.9903 12.7157C96.9903 13.4441 97.6804 13.7891 98.5622 14.2109L99.0989 14.4792C100.441 15.2077 101.783 16.1661 101.783 18.0064C101.783 19.8083 100.709 21.7252 97.6421 21.7252C96.3002 21.7252 94.4216 21.1118 93.4248 20.7668C93.4631 20.6134 93.9999 18.8882 93.9999 18.8882C94.0766 18.6965 94.1916 18.5431 94.3066 18.4665C94.4216 18.4281 94.5366 18.4281 94.69 18.4665L95.2267 18.6582C95.9552 19.0032 96.7219 19.3099 97.4504 19.3099Z" fill="#F8F1F6"/>
<path id="Vector_7" d="M105.847 4.20447C106.153 4.20447 106.422 4.47284 106.422 4.77955V10.9521L106.575 10.7604C106.958 10.377 107.993 9.45686 109.565 9.45686C111.367 9.45686 112.556 10.6454 112.556 12.4856V21.6102H110.064C109.757 21.6102 109.489 21.3418 109.489 21.0351V13.1374C109.489 12.4089 109.105 11.9872 108.377 11.9872C107.227 11.9872 106.422 13.0607 106.422 14.5559V21.6102H103.93C103.623 21.6102 103.354 21.3418 103.354 21.0351V4.20447H105.847Z" fill="#F8F1F6"/>
<path id="Vector_8" d="M129.463 11.0288C130.115 10.0703 130.844 9.45688 132.224 9.45688C132.684 9.45688 132.837 9.76359 132.837 10.0703V12.2556C131.764 12.2173 130.959 12.409 130.422 12.9457C129.77 13.5208 129.463 14.5176 129.463 16.0128V21.6102H127.01C126.665 21.6102 126.435 21.3419 126.435 21.0352C126.435 21.0352 126.435 10.6837 126.435 9.64857H128.39C128.735 9.64857 129.042 9.91694 129.118 10.262L129.387 11.1821L129.463 11.0288Z" fill="#F8F1F6"/>
<path id="Vector_9" d="M89.8212 11.0288C90.473 10.0703 91.2014 9.45688 92.5816 9.45688C93.0417 9.45688 93.195 9.76359 93.195 10.0703V12.2556C92.1216 12.2173 91.3164 12.409 90.7797 12.9457C90.1279 13.5208 89.8596 14.5176 89.8596 16.0128V21.6102H87.3676C87.0609 21.6102 86.7925 21.3419 86.7925 21.0352C86.7925 21.0352 86.7925 10.6837 86.7925 9.64857H88.7477C89.0928 9.64857 89.3995 9.91694 89.4762 10.262L89.7062 11.1821L89.8212 11.0288Z" fill="#F8F1F6"/>
<path id="Vector_10" d="M71.3421 5.62302C71.6104 5.58468 71.8021 5.66136 71.9172 5.73804C72.0322 5.85305 72.0705 6.00641 72.0705 6.31312V9.61024H74.1025C74.4475 9.61024 74.6775 9.87861 74.6775 10.1853V11.9872H72.0705V17.8914C72.0705 18.5815 72.3772 18.9649 72.914 18.9649C73.2207 18.9649 73.4507 18.9265 73.7191 18.8882C74.1025 18.8115 74.2175 18.9649 74.2942 19.2332C74.2942 19.2332 74.5625 20.8818 74.6392 21.2652C73.7957 21.5719 72.7223 21.7636 71.8021 21.7636C69.9235 21.7636 69.0034 20.8051 69.0034 18.7732V5.62302H71.3421Z" fill="#F8F1F6"/>
<path id="Vector_11" d="M136.211 14.3642V14.4409H139.469V14.3642C139.469 12.6773 138.933 11.8339 137.898 11.8339C137.131 11.8339 136.211 12.2556 136.211 14.3642ZM132.99 15.5911C132.99 11.8722 134.869 9.45688 137.783 9.45688C140.888 9.45688 142.422 11.5655 142.422 15.7828C142.422 16.1278 142.153 16.3578 141.846 16.3578H136.172V16.4345C136.172 17.8914 136.287 19.4249 137.783 19.4249C138.703 19.4249 139.239 18.8882 139.354 17.8147H142.268C141.923 20.7284 139.93 21.8019 138.128 21.8019C134.754 21.8019 132.99 19.6933 132.99 15.5911Z" fill="#F8F1F6"/>
<path id="Vector_12" d="M78.7029 14.3642V14.4409H81.9617V14.3642C81.9617 12.6773 81.4249 11.8339 80.3514 11.8339C79.623 11.8339 78.7029 12.2556 78.7029 14.3642ZM75.4824 15.5911C75.4824 11.8722 77.361 9.45688 80.2748 9.45688C83.3802 9.45688 84.9521 11.5655 84.9521 15.7828C84.9521 16.1278 84.6837 16.3578 84.377 16.3578H78.7029V16.4345C78.7029 17.8914 78.8179 19.4249 80.3131 19.4249C81.2332 19.4249 81.7316 18.8882 81.9233 17.8147H84.8371C84.492 20.7284 82.4984 21.8019 80.6965 21.8019C77.246 21.8019 75.4824 19.6933 75.4824 15.5911Z" fill="#F8F1F6"/>
<path id="Vector_13" d="M9.31014 22.7987C6.97148 21.7636 5.66797 19.3099 5.66797 16.4729C5.66797 15.0927 5.97468 13.6358 6.62644 12.2173C8.19832 8.72844 11.5721 7.0032 13.9875 6.61982C13.9875 6.61982 14.6776 6.5048 14.8309 6.46646C14.8692 6.61982 15.0993 8.23004 15.1376 8.38339C14.9843 8.38339 14.2175 8.49841 14.2175 8.49841C12.2239 8.80512 9.50183 10.4537 8.23666 13.3291C7.66158 14.5559 7.39321 15.8211 7.39321 17.0096C7.39321 19.3483 8.42835 21.3419 10.3453 22.2237C12.5306 23.2205 15.0609 22.377 16.9779 20.0767C17.0545 20.1534 17.1696 20.3067 17.2462 20.3834C14.9459 23.0671 11.9555 23.9872 9.31014 22.7987Z" fill="#F8F1F6"/>
<path id="Vector_14" d="M7.85286 23.8339C4.82411 22.4537 3.13721 19.3099 3.13721 15.7061C3.13721 14.0192 3.52059 12.2556 4.28737 10.5304C6.24264 6.15975 10.5749 4.05112 13.642 3.59106C13.642 3.59106 14.2171 3.51438 14.3704 3.47604C14.4471 4.01278 14.6388 5.12461 14.6771 5.43132C14.5238 5.46965 13.872 5.54633 13.872 5.54633C11.0733 6.0064 7.50781 8.07668 5.89759 11.6422C5.20749 13.1374 4.86245 14.7093 4.86245 16.2428C4.86245 17.3546 5.05414 18.4281 5.43753 19.4249C6.12762 21.1885 7.35446 22.5304 8.92634 23.2588C11.7634 24.524 15.0989 23.6038 17.5909 20.8051C17.6676 20.8818 17.7826 21.0351 17.8209 21.1118C14.9455 24.2556 11.15 25.2907 7.85286 23.8339Z" fill="#F8F1F6"/>
<path id="Vector_15" d="M13.9106 0.485626C13.9489 0.638981 14.179 2.21087 14.179 2.36422C14.0256 2.40256 13.4122 2.47924 13.4122 2.47924C10.0767 2.90096 5.55277 5.39297 3.48248 9.91694C2.63903 11.7572 2.25565 13.6741 2.25565 15.476C2.25565 19.3482 4.0959 22.7987 7.43137 24.2939C10.9585 25.8658 15.0224 24.8307 18.0895 21.5335C18.1662 21.6102 18.2812 21.7252 18.3195 21.8019C14.9074 25.4058 10.3451 26.5943 6.39622 24.7923C0.952133 22.377 -1.00314 15.361 1.94894 8.84345C4.17258 3.89777 9.27162 1.13738 13.2972 0.562303C13.2972 0.562303 13.7189 0.523965 13.9106 0.485626Z" fill="#F8F1F6"/>
</g>
</svg>
