<svg width="124" height="16" viewBox="0 0 124 16" fill="none" xmlns="http://www.w3.org/2000/svg">
<g id="Group">
<path id="Vector" d="M0.575073 15.4952V1.0415H3.45047V15.4952H0.575073Z" fill="#333333"/>
<path id="Vector_2" d="M10.8498 15.7252C9.12458 15.7252 7.47603 15.2268 6.32587 14.4601L7.28433 12.2747C8.43449 12.9265 9.66133 13.2716 11.0415 13.2716C12.1533 13.2716 12.4984 13.0032 12.4984 12.4281C12.4984 11.9297 12.115 11.6997 10.9265 11.3163C8.31948 10.5495 6.67091 9.89775 6.67091 7.59743C6.67091 5.33545 8.47284 4.37698 11.0032 4.37698C12.3834 4.37698 13.8402 4.79871 14.9904 5.41213L14.0703 7.67411C12.9968 7.09903 11.8083 6.79232 10.9265 6.79232C9.77635 6.79232 9.46964 7.02235 9.46964 7.48241C9.46964 7.94248 9.81469 8.13417 11.7316 8.74759C13.6869 9.39935 15.3355 10.0894 15.3355 12.2747C15.2971 14.8051 13.3035 15.7252 10.8498 15.7252Z" fill="#333333"/>
<path id="Vector_3" d="M21.508 15.7252C19.7827 15.7252 18.1342 15.2268 16.984 14.4601L17.9425 12.2747C19.0926 12.9265 20.3195 13.2716 21.6997 13.2716C22.8115 13.2716 23.1565 13.0032 23.1565 12.4281C23.1565 11.9297 22.7731 11.6997 21.5846 11.3163C18.9776 10.5495 17.3291 9.89775 17.3291 7.59743C17.3291 5.33545 19.131 4.37698 21.6613 4.37698C23.0415 4.37698 24.4984 4.79871 25.6486 5.41213L24.7284 7.67411C23.6549 7.09903 22.4664 6.79232 21.5846 6.79232C20.4345 6.79232 20.1278 7.02235 20.1278 7.48241C20.1278 7.94248 20.4728 8.13417 22.3898 8.74759C24.345 9.39935 25.9936 10.0894 25.9936 12.2747C25.9169 14.8051 23.9233 15.7252 21.508 15.7252Z" fill="#333333"/>
<path id="Vector_4" d="M34.6581 15.4952V14.7668C34.1597 15.2652 33.2396 15.7252 32.1278 15.7252C29.3674 15.7252 28.1406 13.8083 28.1406 10.7795V4.64536H30.9776V10.5112C30.9776 12.4664 31.6294 13.0415 32.8179 13.0415C34.0064 13.0415 34.6581 12.4664 34.6581 10.5878V4.64536H37.4952V15.4952H34.6581Z" fill="#333333"/>
<path id="Vector_5" d="M48.8435 10.9712H42.3642C42.4792 12.4664 43.5527 13.0032 44.5879 13.0032C45.3546 13.0032 46.0447 12.6965 46.4281 12.2364L48.4601 13.9233C47.5783 15.0351 46.0064 15.6869 44.5879 15.6869C41.4824 15.6869 39.4888 13.4632 39.4888 10.0511C39.4888 6.71564 41.5591 4.37698 44.3195 4.37698C47.1949 4.37698 48.8818 6.94567 48.8818 10.0511C48.8818 10.4728 48.8818 10.7795 48.8435 10.9712ZM44.2045 6.90733C43.1693 6.90733 42.5176 7.75079 42.4409 8.86261H46.1598C46.0448 7.8658 45.4697 6.90733 44.2045 6.90733Z" fill="#333333"/>
<path id="Vector_6" d="M57.3163 7.98081C56.8562 7.55908 56.3195 7.29071 55.6677 7.29071C54.5559 7.29071 53.8275 7.75078 53.8275 9.62937V15.4952H50.9904V4.64535H53.8275V5.37378C54.3259 4.87538 55.0543 4.41531 56.0511 4.41531C56.9713 4.41531 57.6997 4.7987 58.0447 5.18209L57.3163 7.98081Z" fill="#333333"/>
<path id="Vector_7" d="M71.3866 15.7252C67.591 15.7252 65.0223 12.9648 65.0223 8.28753C65.0223 3.61021 67.6294 0.811493 71.4249 0.811493C75.1821 0.811493 77.7508 3.57188 77.7508 8.24919C77.7891 12.8882 75.1438 15.7252 71.3866 15.7252ZM71.3866 3.68689C69.3546 3.68689 68.0128 5.33545 68.0128 8.24919C68.0128 11.1629 69.4313 12.8498 71.4249 12.8498C73.4568 12.8498 74.7987 11.2013 74.7987 8.28753C74.7987 5.37379 73.3802 3.68689 71.3866 3.68689Z" fill="#333333"/>
<path id="Vector_8" d="M86.5303 15.4952V9.62937C86.5303 7.6741 85.8786 7.09902 84.6901 7.09902C83.5016 7.09902 82.8498 7.6741 82.8498 9.55269V15.4952H80.0128V4.64535H82.8498V5.37378C83.3482 4.87538 84.2683 4.41531 85.3802 4.41531C88.1406 4.41531 89.3674 6.33225 89.3674 9.361V15.4568H86.5303V15.4952Z" fill="#333333"/>
<path id="Vector_9" d="M91.9361 15.4952V1.84663L94.7732 0.428101V15.4952H91.9361Z" fill="#333333"/>
<path id="Vector_10" d="M98.9904 3.76356C98.1086 3.76356 97.3419 3.03512 97.3419 2.11499C97.3419 1.2332 98.0703 0.466431 98.9904 0.466431C99.8722 0.466431 100.639 1.19487 100.639 2.11499C100.601 2.99678 99.8722 3.76356 98.9904 3.76356ZM97.5719 15.4952V4.64535H100.409V15.4952H97.5719Z" fill="#333333"/>
<path id="Vector_11" d="M109.61 15.4952V9.62937C109.61 7.6741 108.958 7.09902 107.77 7.09902C106.581 7.09902 105.93 7.6741 105.93 9.55269V15.4952H103.093V4.64535H105.93V5.37378C106.428 4.87538 107.348 4.41531 108.46 4.41531C111.22 4.41531 112.447 6.33225 112.447 9.361V15.4568H109.61V15.4952Z" fill="#333333"/>
<path id="Vector_12" d="M123.719 10.9712H117.24C117.355 12.4664 118.428 13.0032 119.463 13.0032C120.23 13.0032 120.92 12.6965 121.304 12.2364L123.335 13.9233C122.454 15.0351 120.882 15.6869 119.463 15.6869C116.358 15.6869 114.364 13.4632 114.364 10.0511C114.364 6.71564 116.434 4.37698 119.195 4.37698C122.07 4.37698 123.757 6.94567 123.757 10.0511C123.757 10.4728 123.719 10.7795 123.719 10.9712ZM119.042 6.90733C118.006 6.90733 117.355 7.75079 117.278 8.86261H120.997C120.92 7.8658 120.307 6.90733 119.042 6.90733Z" fill="#333333"/>
</g>
</svg>
