<svg width="124" height="16" viewBox="0 0 124 16" fill="none" xmlns="http://www.w3.org/2000/svg">
<g id="Group">
<path id="Vector" d="M0.575195 15.4952V1.0415H3.45059V15.4952H0.575195Z" fill="white"/>
<path id="Vector_2" d="M10.8501 15.7252C9.12489 15.7252 7.47633 15.2268 6.32617 14.4601L7.28464 12.2747C8.4348 12.9265 9.66163 13.2716 11.0418 13.2716C12.1536 13.2716 12.4987 13.0032 12.4987 12.4281C12.4987 11.9297 12.1153 11.6997 10.9268 11.3163C8.31978 10.5495 6.67122 9.89775 6.67122 7.59743C6.67122 5.33545 8.47314 4.37698 11.0035 4.37698C12.3837 4.37698 13.8406 4.79871 14.9907 5.41213L14.0706 7.67411C12.9971 7.09903 11.8086 6.79232 10.9268 6.79232C9.77665 6.79232 9.46995 7.02235 9.46995 7.48241C9.46995 7.94248 9.81499 8.13417 11.7319 8.74759C13.6872 9.39935 15.3358 10.0894 15.3358 12.2747C15.2974 14.8051 13.3038 15.7252 10.8501 15.7252Z" fill="white"/>
<path id="Vector_3" d="M21.5083 15.7252C19.7831 15.7252 18.1345 15.2268 16.9844 14.4601L17.9428 12.2747C19.093 12.9265 20.3198 13.2716 21.7 13.2716C22.8118 13.2716 23.1569 13.0032 23.1569 12.4281C23.1569 11.9297 22.7735 11.6997 21.585 11.3163C18.978 10.5495 17.3294 9.89775 17.3294 7.59743C17.3294 5.33545 19.1313 4.37698 21.6617 4.37698C23.0419 4.37698 24.4988 4.79871 25.6489 5.41213L24.7288 7.67411C23.6553 7.09903 22.4668 6.79232 21.585 6.79232C20.4349 6.79232 20.1281 7.02235 20.1281 7.48241C20.1281 7.94248 20.4732 8.13417 22.3901 8.74759C24.3454 9.39935 25.994 10.0894 25.994 12.2747C25.9173 14.8051 23.9237 15.7252 21.5083 15.7252Z" fill="white"/>
<path id="Vector_4" d="M34.6582 15.4952V14.7668C34.1598 15.2652 33.2397 15.7252 32.1278 15.7252C29.3674 15.7252 28.1406 13.8083 28.1406 10.7795V4.64536H30.9777V10.5112C30.9777 12.4664 31.6294 13.0415 32.8179 13.0415C34.0064 13.0415 34.6582 12.4664 34.6582 10.5878V4.64536H37.4952V15.4952H34.6582Z" fill="white"/>
<path id="Vector_5" d="M48.8434 10.9712H42.3642C42.4792 12.4664 43.5527 13.0032 44.5878 13.0032C45.3546 13.0032 46.0447 12.6965 46.4281 12.2364L48.46 13.9233C47.5782 15.0351 46.0063 15.6869 44.5878 15.6869C41.4824 15.6869 39.4888 13.4632 39.4888 10.0511C39.4888 6.71564 41.559 4.37698 44.3194 4.37698C47.1948 4.37698 48.8817 6.94567 48.8817 10.0511C48.8817 10.4728 48.8818 10.7795 48.8434 10.9712ZM44.2044 6.90733C43.1693 6.90733 42.5175 7.75079 42.4409 8.86261H46.1597C46.0447 7.8658 45.4696 6.90733 44.2044 6.90733Z" fill="white"/>
<path id="Vector_6" d="M57.3166 7.98081C56.8565 7.55908 56.3198 7.29071 55.668 7.29071C54.5562 7.29071 53.8278 7.75078 53.8278 9.62937V15.4952H50.9907V4.64535H53.8278V5.37378C54.3262 4.87538 55.0546 4.41531 56.0514 4.41531C56.9716 4.41531 57.7 4.7987 58.045 5.18209L57.3166 7.98081Z" fill="white"/>
<path id="Vector_7" d="M71.3867 15.7252C67.5912 15.7252 65.0225 12.9648 65.0225 8.28753C65.0225 3.61021 67.6295 0.811493 71.425 0.811493C75.1822 0.811493 77.7509 3.57188 77.7509 8.24919C77.7892 12.8882 75.1439 15.7252 71.3867 15.7252ZM71.3867 3.68689C69.3547 3.68689 68.0129 5.33545 68.0129 8.24919C68.0129 11.1629 69.4314 12.8498 71.425 12.8498C73.457 12.8498 74.7988 11.2013 74.7988 8.28753C74.7988 5.37379 73.3803 3.68689 71.3867 3.68689Z" fill="white"/>
<path id="Vector_8" d="M86.5303 15.4952V9.62937C86.5303 7.6741 85.8785 7.09902 84.69 7.09902C83.5015 7.09902 82.8497 7.6741 82.8497 9.55269V15.4952H80.0127V4.64535H82.8497V5.37378C83.3481 4.87538 84.2683 4.41531 85.3801 4.41531C88.1405 4.41531 89.3673 6.33225 89.3673 9.361V15.4568H86.5303V15.4952Z" fill="white"/>
<path id="Vector_9" d="M91.936 15.4952V1.84663L94.7731 0.428101V15.4952H91.936Z" fill="white"/>
<path id="Vector_10" d="M98.9904 3.76356C98.1086 3.76356 97.3418 3.03512 97.3418 2.11499C97.3418 1.2332 98.0702 0.466431 98.9904 0.466431C99.8721 0.466431 100.639 1.19487 100.639 2.11499C100.601 2.99678 99.8721 3.76356 98.9904 3.76356ZM97.5718 15.4952V4.64535H100.409V15.4952H97.5718Z" fill="white"/>
<path id="Vector_11" d="M109.61 15.4952V9.62937C109.61 7.6741 108.959 7.09902 107.77 7.09902C106.582 7.09902 105.93 7.6741 105.93 9.55269V15.4952H103.093V4.64535H105.93V5.37378C106.428 4.87538 107.348 4.41531 108.46 4.41531C111.221 4.41531 112.447 6.33225 112.447 9.361V15.4568H109.61V15.4952Z" fill="white"/>
<path id="Vector_12" d="M123.719 10.9712H117.24C117.355 12.4664 118.428 13.0032 119.463 13.0032C120.23 13.0032 120.92 12.6965 121.304 12.2364L123.336 13.9233C122.454 15.0351 120.882 15.6869 119.463 15.6869C116.358 15.6869 114.364 13.4632 114.364 10.0511C114.364 6.71564 116.435 4.37698 119.195 4.37698C122.07 4.37698 123.757 6.94567 123.757 10.0511C123.757 10.4728 123.719 10.7795 123.719 10.9712ZM119.042 6.90733C118.006 6.90733 117.355 7.75079 117.278 8.86261H120.997C120.92 7.8658 120.307 6.90733 119.042 6.90733Z" fill="white"/>
</g>
</svg>
